<svg width="40" height="40" viewBox="0 0 40 40" fill="none" xmlns="http://www.w3.org/2000/svg">
<rect width="40" height="40" rx="20" fill="#065F46"/>
<path d="M20.3333 23H14.3333C12.9188 23 11.5623 23.5619 10.5621 24.5621C9.5619 25.5623 9 26.9188 9 28.3333V31" stroke="white" stroke-width="2" stroke-linecap="round" stroke-linejoin="round"/>
<path d="M33.504 25.168C34.0352 24.6369 34.3336 23.9165 34.3336 23.1653C34.3336 22.4142 34.0352 21.6938 33.504 21.1627C32.9729 20.6315 32.2525 20.3331 31.5014 20.3331C30.7502 20.3331 30.0299 20.6315 29.4987 21.1627L24.1521 26.512C23.835 26.8288 23.603 27.2204 23.4774 27.6507L22.3614 31.4773C22.3279 31.5921 22.3259 31.7137 22.3556 31.8295C22.3852 31.9452 22.4455 32.0509 22.53 32.1354C22.6145 32.2199 22.7202 32.2801 22.8359 32.3098C22.9517 32.3395 23.0733 32.3375 23.188 32.304L27.0147 31.188C27.4449 31.0624 27.8366 30.8303 28.1534 30.5133L33.504 25.168Z" stroke="white" stroke-width="2" stroke-linecap="round" stroke-linejoin="round"/>
<path d="M18.3333 17.6667C21.2789 17.6667 23.6667 15.2789 23.6667 12.3333C23.6667 9.38781 21.2789 7 18.3333 7C15.3878 7 13 9.38781 13 12.3333C13 15.2789 15.3878 17.6667 18.3333 17.6667Z" stroke="white" stroke-width="2" stroke-linecap="round" stroke-linejoin="round"/>
</svg>
